<mxfile host="app.diagrams.net" modified="2023-04-12T09:53:02.468Z" agent="Mozilla/5.0 (Windows NT 10.0; Win64; x64) AppleWebKit/537.36 (KHTML, like Gecko) Chrome/111.0.0.0 Safari/537.36" version="21.1.6" etag="MHgV3BjPWb_TTC4qD94e" type="github">
  <diagram name="Page-1" id="8l-Xie4bu8lW_dLwsvZj">
    <mxGraphModel>
      <root>
        <mxCell id="0" />
        <mxCell id="1" parent="0" />
      </root>
    </mxGraphModel>
  </diagram>
</mxfile>
